Coordinates
version=1
nRows=19
nColumns=24
inDegrees=yes

Units are S.I. units (second, meters, Newtons, ...)
Angles are in degrees.

endheader
time	pelvis_tilt	pelvis_list	pelvis_rotation	pelvis_tx	pelvis_ty	pelvis_tz	hip_flexion_r	hip_adduction_r	hip_rotation_r	knee_angle_r	ankle_angle_r	subtalar_angle_r	mtp_angle_r	hip_flexion_l	hip_adduction_l	hip_rotation_l	knee_angle_l	ankle_angle_l	subtalar_angle_l	mtp_angle_l	lumbar_extension	lumbar_bending	lumbar_rotation
      1.85000000	     13.20598995	      5.03687792	     -4.41165972	      0.47892889	      0.94727661	      0.25145525	      7.39883626	     -8.04630157	     -0.72651372	    -63.69493907	     17.39902357	      4.49030626	     52.12161612	     -5.12018665	     10.19805597	     -7.99247073	    -16.33959683	     20.93893111	      3.90216477	     22.24868723	    -29.58286216	     -8.29400968	      6.58067282
      1.85500000	     13.41159462	      5.00554257	     -4.29606937	      0.48534312	      0.94808335	      0.25109483	      7.71833586	     -8.05108977	     -0.94445535	    -62.93841199	     17.85118862	      4.54647455	     51.24622530	     -6.10005236	     10.20709096	     -7.91567161	    -15.75197254	     21.08356719	      4.29192291	     21.82968984	    -29.82817101	     -8.15768892	      6.43198816
      1.86000000	     13.51188155	      4.95217699	     -4.13521640	      0.49173412	      0.94865027	      0.25071679	      8.13431274	     -8.02463131	     -1.18707015	    -62.13107618	     18.19046485	      4.67565866	     51.09585104	     -6.91609866	     10.16214180	     -7.85375931	    -15.26941507	     21.27998719	      4.75916500	     21.75166475	    -29.97264243	     -7.94533318	      6.09037299
      1.86500000	     13.64657865	      4.92165177	     -3.98189453	      0.49816076	      0.94920214	      0.25034685	      8.48385516	     -8.03117158	     -1.44397975	    -61.25208369	     18.54363257	      4.75475888	     50.94679774	     -7.77358901	     10.14169277	     -7.79011232	    -14.77230152	     21.38659144	      5.21082658	     21.65924679	    -30.14512200	     -7.76973261	      5.79445402
      1.87000000	     13.83024984	      4.87563602	     -3.83061011	      0.50455802	      0.94972876	      0.24998491	      8.75418689	     -8.01709668	     -1.69549525	    -60.30505625	     18.83983495	      4.80066866	     50.72328203	     -8.68510589	     10.10865200	     -7.68850534	    -14.27295945	     21.55195164	      5.60702660	     21.50680590	    -30.37398295	     -7.58234781	      5.52269891
      1.87500000	     14.00032878	      4.84549561	     -3.68848126	      0.51093781	      0.95014431	      0.24965674	      9.02628189	     -8.01052269	     -1.92187206	    -59.31104319	     19.11526587	      4.85953719	     50.44754442	     -9.56685010	     10.08831635	     -7.57467994	    -13.79637517	     21.73383263	      5.99422710	     21.28863047	    -30.58924462	     -7.41852965	      5.24962244
      1.88000000	     14.14531598	      4.83164746	     -3.56669860	      0.51734935	      0.95044167	      0.24935857	      9.31080908	     -8.01742555	     -2.12468905	    -58.28110627	     19.49500576	      5.02320407	     49.21831450	    -10.41183647	     10.08492221	     -7.47736528	    -13.34117315	     21.95991769	      6.37877480	     19.96633375	    -30.76614357	     -7.28172027	      5.01033681
      1.88500000	     14.25788708	      4.79276010	     -3.38902413	      0.52374706	      0.95064723	      0.24905153	      9.58686295	     -7.99539581	     -2.39156391	    -57.16005366	     19.67000499	      5.02455785	     49.18024324	    -11.18709399	     10.02662356	     -7.37134394	    -12.95617308	     22.12197493	      6.79445583	     19.89662866	    -30.91676849	     -7.09240847	      4.69204628
      1.89000000	     14.42399228	      4.76534068	     -3.23176669	      0.53013442	      0.95083981	      0.24875163	      9.78021283	     -7.98546729	     -2.63268015	    -55.97838393	     19.84961862	      5.05036959	     49.09260851	    -12.02550071	      9.99098716	     -7.24943299	    -12.54851906	     22.25426558	      7.12462522	     19.74583688	    -31.12651027	     -6.92344286	      4.40348588
      1.89500000	     14.61003952	      4.74622098	     -3.07894981	      0.53648202	      0.95096725	      0.24848083	      9.93334842	     -7.97691676	     -2.85687755	    -54.74503065	     19.99653495	      5.06786041	     48.93371906	    -12.87172110	      9.96183220	     -7.07742088	    -12.16842601	     22.45619770	      7.44209690	     19.47854880	    -31.36040781	     -6.77232282	      4.12902999
      1.90000000	     14.74431846	      4.73316168	     -2.92211747	      0.54285074	      0.95095230	      0.24820698	     10.12047942	     -7.97492407	     -3.08450796	    -53.47303644	     20.19858065	      5.18997601	     48.09089044	    -13.63966003	      9.93082041	     -6.91851909	    -11.84234217	     22.78025473	      7.81384413	     17.55065113	    -31.53463289	     -6.62471347	      3.86478594
      1.90500000	     14.87752027	      4.70546508	     -2.77537701	      0.54923063	      0.95088135	      0.24802376	     10.27881036	     -7.93919212	     -3.29698355	    -52.12506511	     20.25196805	      5.15540868	     48.05736438	    -14.38652947	      9.87544192	     -6.81399849	    -11.54160091	     22.95475200	      8.11400544	     17.46504550	    -31.70680724	     -6.46473074	      3.55820624
      1.91000000	     15.04150268	      4.68533446	     -2.62051308	      0.55555379	      0.95078687	      0.24782401	     10.37154984	     -7.91020076	     -3.50303394	    -50.70929957	     20.29187697	      5.15831505	     47.98297034	    -15.15656527	      9.82647662	     -6.63567886	    -11.25529992	     23.13798514	      8.37846113	     17.26715313	    -31.91967452	     -6.31631816	      3.28904463
      1.91500000	     15.18959907	      4.65710725	     -2.46533696	      0.56188708	      0.95062290	      0.24765921	     10.44721114	     -7.86377326	     -3.70398185	    -49.22633130	     20.28897905	      5.16421037	     47.87906575	    -15.88746918	      9.76210680	     -6.48058997	    -11.01244013	     23.31058509	      8.61675283	     16.99407674	    -32.11489341	     -6.15912971	      3.00630842
      1.92000000	     15.33108879	      4.63185744	     -2.30963957	      0.56823645	      0.95038945	      0.24750923	     10.50128689	     -7.81838505	     -3.91141838	    -47.69122338	     20.25048665	      5.15207374	     47.75443801	    -16.60210003	      9.69721078	     -6.31869939	    -10.78875070	     23.51039455	      8.84045481	     16.64668786	    -32.30093632	     -6.00661060	      2.73013192
      1.92500000	     15.47604499	      4.63494393	     -2.16993184	      0.57458479	      0.95007101	      0.24736119	     10.54039203	     -7.80744158	     -4.10681207	    -46.13596214	     20.23627902	      5.23603573	     47.17439529	    -17.31695433	      9.66462965	     -6.12267823	    -10.58762687	     23.97649870	      9.17535563	     13.76599382	    -32.48546875	     -5.90186429	      2.53230141
      1.93000000	     15.57003918	      4.59976485	     -2.02502672	      0.58089007	      0.94965799	      0.24733725	     10.59146441	     -7.71476230	     -4.25296369	    -44.48528820	     20.09459411	      5.14481056	     47.12750526	    -17.91923224	      9.57268759	     -6.01438916	    -10.47633447	     24.21733713	      9.41347613	     13.67038745	    -32.62777044	     -5.74329251	      2.20736098
      1.93500000	     15.75385074	      4.58045436	     -1.88895869	      0.58724174	      0.94930892	      0.24724598	     10.50267167	     -7.66339753	     -4.43329698	    -42.77247907	     19.97742874	      5.20326928	     47.08376814	    -18.65557727	      9.50994994	     -5.83231125	    -10.30265457	     24.53012442	      9.63962523	     12.36020129	    -32.85659997	     -5.62114454	      2.02714584
      1.94000000	     15.82557641	      4.54791259	     -1.73705305	      0.59352587	      0.94878272	      0.24726470	     10.51335830	     -7.55660431	     -4.56110800	    -41.00827347	     19.69903056	      5.04716680	     47.00456605	    -19.20723641	      9.40965874	     -5.69084586	    -10.24023333	     24.79610626	      9.85590879	     12.22271756	    -32.97792809	     -5.46644291	      1.69988095
